:SAMPLES-PER-SECOND 30
:FULLY-SPECIFIED
:DEGREES
444
root  -52.9916 34.3906 31.2579 -168.453 49.4213 -175.684
RightUpLeg  -8.52504 -6.51927 4.40093
RightLeg  11.9562 -2.12839 -0.3085
RightFoot  -3.1256 -0.00190204 0.198939
RightToes  -16.3006 -0.0602668 -0.143016
Spine  -1.2055 -1.68357 2.5017
Spine1  -2.56846 -3.69467 5.67365
HEad  -49.2027 -17.7246 8.08449
LeftShoulder1  -1.94126e-019 -3.10601e-018 -2.51263e-017
LeftArm  -17.7976 26.5481 -83.1669
LeftForeArm  34.1124 -20.356 -3.45705
LeftHand  -0.425896 -1.91611 6.95479
RightShoulder  -4.96962e-017 0 -2.36833e-017
RightArm  -37.397 -29.2301 67.259
RightForeArm  67.4664 7.44607 1.25302
RightHand  -0.208312 -3.06054 -9.84089
LeftUpLeg  -21.2926 8.56031 7.00536
LeftLeg  34.5469 3.12604 1.86132
LeftFoot  -0.0699464 -9.94663e-005 -0.0014432
LeftToes  -29.6002 1.48321e-006 1.01846e-007
445
root  -53.0298 34.3854 31.2049 -169.108 49.0659 -175.986
RightUpLeg  -8.28077 -6.83962 4.08692
RightLeg  12.3789 -2.19707 -0.335112
RightFoot  -3.32557 -0.00165344 0.211939
RightToes  -16.3964 -0.0609822 -0.143619
Spine  -1.04123 -1.71729 2.46745
Spine1  -2.23935 -3.7746 5.61068
HEad  -47.8354 -16.5792 7.61391
LeftShoulder1  -1.94126e-019 -3.10601e-018 -2.51263e-017
LeftArm  -17.7357 26.1677 -83.0358
LeftForeArm  33.9564 -21.0343 -3.55065
LeftHand  -0.430004 -1.88294 7.04964
RightShoulder  -4.96962e-017 0 -2.36833e-017
RightArm  -37.7935 -29.0522 67.2015
RightForeArm  68.1226 7.28863 1.21279
RightHand  -0.61833 0.350279 -12.5703
LeftUpLeg  -23.0759 9.95582 7.08738
LeftLeg  38.2661 0.733946 0.499819
LeftFoot  2.15468 0.00261378 0.0225173
LeftToes  -34.6872 1.48321e-006 1.01846e-007
446
root  -53.0837 34.3877 31.1497 -169.738 48.7134 -176.292
RightUpLeg  -8.08985 -7.01654 3.75554
RightLeg  12.8311 -2.38889 -0.383808
RightFoot  -3.50826 -0.00217354 0.236838
RightToes  -16.4774 -0.0618863 -0.144607
Spine  -0.918944 -1.71589 2.38427
Spine1  -1.98636 -3.75859 5.44176
HEad  -47.0463 -15.6705 7.23052
LeftShoulder1  -1.94126e-019 -3.10601e-018 -2.51263e-017
LeftArm  -17.64 25.771 -82.8429
LeftForeArm  33.8395 -21.6272 -3.61015
LeftHand  -0.44196 -1.94093 7.18772
RightShoulder  -4.96962e-017 0 -2.36833e-017
RightArm  -38.0147 -28.6473 67.3771
RightForeArm  69.2408 7.06054 1.16801
RightHand  -0.694712 0.721666 -13.2801
LeftUpLeg  -24.7199 10.9709 7.29433
LeftLeg  41.593 -1.52639 -1.19534
LeftFoot  4.78751 0.015212 -0.179619
LeftToes  -41.5825 1.48321e-006 1.01846e-007
447
root  -53.1241 34.3797 31.0416 -170.091 48.585 -176.391
RightUpLeg  -8.0049 -7.13293 3.48603
RightLeg  13.377 -2.41302 -0.411425
RightFoot  -3.75593 -0.00219678 0.255301
RightToes  -16.4883 -0.0629998 -0.146042
Spine  -0.799859 -1.63374 2.27829
Spine1  -1.73488 -3.55954 5.20789
HEad  -46.8471 -14.9401 6.92496
LeftShoulder1  -1.94126e-019 -3.10601e-018 -2.51263e-017
LeftArm  -17.4726 25.4228 -82.5881
LeftForeArm  33.6828 -22.4372 -3.69554
LeftHand  -0.446204 -2.01752 7.18564
RightShoulder  -4.96962e-017 0 -2.36833e-017
RightArm  -38.0308 -27.8699 67.8445
RightForeArm  69.8582 7.18555 1.18705
RightHand  -0.76626 1.17065 -13.6643
LeftUpLeg  -25.7278 11.5784 7.68767
LeftLeg  43.7756 -3.11783 -2.62917
LeftFoot  6.16193 0.0301802 -0.453314
LeftToes  -46.1392 1.48321e-006 1.01846e-007
448
root  -53.1682 34.3721 30.9252 -170.213 48.7948 -176.264
RightUpLeg  -7.94881 -6.40782 3.35979
RightLeg  13.8223 -2.95685 -0.527912
RightFoot  -3.88297 -0.00472611 0.309983
RightToes  -16.5378 -0.0643432 -0.147984
Spine  -0.731834 -1.39616 2.16645
Spine1  -1.58178 -3.02519 4.94843
HEad  -46.8111 -14.5987 6.42101
LeftShoulder1  -1.94126e-019 -3.10601e-018 -2.51263e-017
LeftArm  -17.1316 25.03 -82.3227
LeftForeArm  33.4314 -23.05 -3.76345
LeftHand  -0.451779 -2.03169 7.26021
RightShoulder  -4.96962e-017 0 -2.36833e-017
RightArm  -36.996 -26.9325 68.4754
RightForeArm  69.26 7.62286 1.26528
RightHand  -0.786998 1.30795 -13.7518
LeftUpLeg  -25.8545 11.462 8.45893
LeftLeg  44.0004 -3.99559 -3.39152
LeftFoot  6.06827 0.0346856 -0.556116
LeftToes  -45.2279 1.48321e-006 1.01846e-007
449
root  -53.2147 34.3755 30.7481 -170.216 49.0198 -176.12
RightUpLeg  -7.83109 -5.64364 3.17065
RightLeg  14.0422 -3.49233 -0.637307
RightFoot  -3.87575 -0.00700168 0.361199
RightToes  -16.7864 -0.0659371 -0.150495
Spine  -0.795253 -1.1931 2.0588
Spine1  -1.69298 -2.53654 4.69785
HEad  -46.6215 -14.6908 5.1606
LeftShoulder1  -1.94126e-019 -3.10601e-018 -2.51263e-017
LeftArm  -16.9663 24.9111 -82.1807
LeftForeArm  33.2471 -23.2935 -3.76259
LeftHand  -0.455229 -1.98456 7.35746
RightShoulder  -4.96962e-017 0 -2.36833e-017
RightArm  -35.6718 -25.8282 69.133
RightForeArm  68.2549 8.13771 1.36568
RightHand  -0.265514 -2.66749 -10.9481
LeftUpLeg  -25.1367 10.6839 9.20736
LeftLeg  42.1321 -2.34629 -1.86886
LeftFoot  3.92792 0.0117487 -0.181119
LeftToes  -42.7845 1.48321e-006 1.01846e-007
450
root  -53.2685 34.3851 30.4767 -170.47 49.193 -176.245
RightUpLeg  -7.42745 -5.26572 2.65605
RightLeg  13.9665 -3.71667 -0.673095
RightFoot  -3.77463 -0.00616384 0.383785
RightToes  -17.4088 -0.067802 -0.155669
Spine  -0.873108 -1.07804 1.92094
Spine1  -1.8365 -2.22137 4.39392
HEad  -46.106 -15.1602 2.87403
LeftShoulder1  -1.94126e-019 -3.10601e-018 -2.51263e-017
LeftArm  -17.2157 24.7837 -82.223
LeftForeArm  33.2208 -22.9195 -3.6746
LeftHand  -0.462336 -2.04192 7.41597
RightShoulder  -4.96962e-017 0 -2.36833e-017
RightArm  -32.2453 -24.7335 69.6892
RightForeArm  65.23 9.34474 1.50174
RightHand  -0.253861 -2.72218 -10.6507
LeftUpLeg  -23.3808 9.01334 9.65962
LeftLeg  38.0098 1.60016 1.08631
LeftFoot  2.18731 0.000749977 0.122231
LeftToes  -37.5713 1.48321e-006 1.01846e-007
451
root  -53.3505 34.3864 30.2106 -170.107 49.396 -175.904
RightUpLeg  -7.25394 -4.40284 2.46725
RightLeg  13.7438 -4.35863 -0.771604
RightFoot  -3.54131 -0.00756579 0.423996
RightToes  -17.88 -0.0699585 -0.159562
Spine  -1.1216 -0.929312 1.88442
Spine1  -2.32374 -1.83177 4.30193
HEad  -45.1903 -16.2957 -0.41867
LeftShoulder1  -1.94126e-019 -3.10601e-018 -2.51263e-017
LeftArm  -17.0857 24.9581 -82.319
LeftForeArm  33.0342 -22.5642 -3.59453
LeftHand  -0.464105 -1.984 7.44113
RightShoulder  -4.96962e-017 0 -2.36833e-017
RightArm  -30.3007 -23.594 70.2934
RightForeArm  63.7536 10.4952 1.53979
RightHand  -0.262538 -2.52636 -10.3003
LeftUpLeg  -21.0893 6.62129 10.3988
LeftLeg  31.7592 5.78306 3.07188
LeftFoot  1.54673 -0.00114472 0.246339
LeftToes  -33.8905 1.48321e-006 1.01846e-007
452
root  -53.4481 34.4006 29.8292 -170.408 49.3687 -176.341
RightUpLeg  -6.85708 -4.58819 1.57278
RightLeg  13.4522 -4.20344 -0.72209
RightFoot  -3.39928 -0.00598831 0.415482
RightToes  -18.6378 -0.0739958 -0.16578
Spine  -1.33664 -0.938777 1.69652
Spine1  -2.74888 -1.77726 3.93168
HEad  -44.3908 -17.7772 -4.31872
LeftShoulder1  -1.94126e-019 -3.10601e-018 -2.51263e-017
LeftArm  -17.3388 24.8801 -82.4539
LeftForeArm  33.1288 -21.2785 -3.37491
LeftHand  -0.465434 -2.01048 7.40088
RightShoulder  -4.96962e-017 0 -2.36833e-017
RightArm  -26.465 -22.5037 70.8955
RightForeArm  60.2357 12.128 1.45836
RightHand  -0.268398 -2.31373 -9.83568
LeftUpLeg  -18.2655 3.20166 10.3461
LeftLeg  24.2736 8.46623 3.16254
LeftFoot  3.23609 -0.0124292 0.601545
LeftToes  -29.2786 1.48321e-006 1.01846e-007
453
root  -53.5963 34.4065 29.4305 -170.556 48.9654 -176.643
RightUpLeg  -6.58719 -4.90272 0.740466
RightLeg  13.3008 -4.27165 -0.722148
RightFoot  -3.13771 -0.00464943 0.410377
RightToes  -19.7889 -0.080285 -0.175123
Spine  -1.61525 -1.06486 1.55703
Spine1  -3.31139 -1.97371 3.67806
HEad  -43.5188 -19.6616 -8.30763
LeftShoulder1  -1.94126e-019 -3.10601e-018 -2.51263e-017
LeftArm  -17.6834 24.7088 -82.7035
LeftForeArm  33.2577 -19.6321 -3.11157
LeftHand  -0.460146 -1.95452 7.46309
RightShoulder  -4.96962e-017 0 -2.36833e-017
RightArm  -23.061 -21.4901 71.4343
RightForeArm  57.4884 13.719 1.28012
RightHand  -0.305993 -1.71896 -9.50697
LeftUpLeg  -16.9716 1.41746 9.63989
LeftLeg  21.612 9.74002 3.13022
LeftFoot  3.93819 -0.0224551 0.814667
LeftToes  -30.4938 1.48321e-006 1.01846e-007
